<mxfile host="app.diagrams.net" agent="Mozilla/5.0 (Windows NT 10.0; Win64; x64) AppleWebKit/537.36 (KHTML, like Gecko) Chrome/134.0.0.0 Safari/537.36" version="26.0.16">
  <diagram id="R2lEEEUBdFMjLlhIrx00" name="Page-1">
    <mxGraphModel dx="838" dy="482" grid="1" gridSize="10" guides="1" tooltips="1" connect="1" arrows="1" fold="1" page="1" pageScale="1" pageWidth="850" pageHeight="1100" background="none" math="0" shadow="0" extFonts="Permanent Marker^https://fonts.googleapis.com/css?family=Permanent+Marker">
      <root>
        <mxCell id="0" />
        <mxCell id="1" parent="0" />
        <mxCell id="u_zgDY_KHdapnY-MHny4-32" value="tbl_Patient" style="shape=table;startSize=30;container=1;collapsible=0;childLayout=tableLayout;fontStyle=3;fontFamily=Comic Sans MS;labelBackgroundColor=none;labelBorderColor=none;textShadow=0;whiteSpace=wrap;fontColor=default;" vertex="1" parent="1">
          <mxGeometry x="100" y="80" width="150" height="150" as="geometry" />
        </mxCell>
        <mxCell id="u_zgDY_KHdapnY-MHny4-33" value="" style="shape=tableRow;horizontal=0;startSize=0;swimlaneHead=0;swimlaneBody=0;strokeColor=inherit;top=0;left=0;bottom=0;right=0;collapsible=0;dropTarget=0;fillColor=none;points=[[0,0.5],[1,0.5]];portConstraint=eastwest;fontStyle=3;fontFamily=Comic Sans MS;labelBackgroundColor=none;labelBorderColor=none;textShadow=0;whiteSpace=wrap;fontColor=default;" vertex="1" parent="u_zgDY_KHdapnY-MHny4-32">
          <mxGeometry y="30" width="150" height="30" as="geometry" />
        </mxCell>
        <mxCell id="u_zgDY_KHdapnY-MHny4-34" value="PK" style="shape=partialRectangle;connectable=0;strokeColor=inherit;overflow=hidden;fillColor=none;top=0;left=0;bottom=0;right=0;pointerEvents=1;fontStyle=3;fontFamily=Comic Sans MS;labelBackgroundColor=none;labelBorderColor=none;textShadow=0;whiteSpace=wrap;fontColor=default;" vertex="1" parent="u_zgDY_KHdapnY-MHny4-33">
          <mxGeometry width="30" height="30" as="geometry">
            <mxRectangle width="30" height="30" as="alternateBounds" />
          </mxGeometry>
        </mxCell>
        <mxCell id="u_zgDY_KHdapnY-MHny4-35" value="PatientID" style="shape=partialRectangle;connectable=0;strokeColor=inherit;overflow=hidden;fillColor=none;top=0;left=0;bottom=0;right=0;pointerEvents=1;fontStyle=3;fontFamily=Comic Sans MS;labelBackgroundColor=none;labelBorderColor=none;textShadow=0;whiteSpace=wrap;fontColor=default;" vertex="1" parent="u_zgDY_KHdapnY-MHny4-33">
          <mxGeometry x="30" width="120" height="30" as="geometry">
            <mxRectangle width="120" height="30" as="alternateBounds" />
          </mxGeometry>
        </mxCell>
        <mxCell id="u_zgDY_KHdapnY-MHny4-36" value="" style="shape=tableRow;horizontal=0;startSize=0;swimlaneHead=0;swimlaneBody=0;strokeColor=inherit;top=0;left=0;bottom=0;right=0;collapsible=0;dropTarget=0;fillColor=none;points=[[0,0.5],[1,0.5]];portConstraint=eastwest;fontStyle=2;fontFamily=Comic Sans MS;labelBackgroundColor=none;labelBorderColor=none;textShadow=0;whiteSpace=wrap;fontColor=default;" vertex="1" parent="u_zgDY_KHdapnY-MHny4-32">
          <mxGeometry y="60" width="150" height="30" as="geometry" />
        </mxCell>
        <mxCell id="u_zgDY_KHdapnY-MHny4-37" value="" style="shape=partialRectangle;connectable=0;strokeColor=inherit;overflow=hidden;fillColor=none;top=0;left=0;bottom=0;right=0;pointerEvents=1;fontStyle=2;fontFamily=Comic Sans MS;labelBackgroundColor=none;labelBorderColor=none;textShadow=0;whiteSpace=wrap;fontColor=default;" vertex="1" parent="u_zgDY_KHdapnY-MHny4-36">
          <mxGeometry width="30" height="30" as="geometry">
            <mxRectangle width="30" height="30" as="alternateBounds" />
          </mxGeometry>
        </mxCell>
        <mxCell id="u_zgDY_KHdapnY-MHny4-38" value="Name" style="shape=partialRectangle;connectable=0;strokeColor=inherit;overflow=hidden;fillColor=none;top=0;left=0;bottom=0;right=0;pointerEvents=1;align=center;fontStyle=2;fontFamily=Comic Sans MS;labelBackgroundColor=none;labelBorderColor=none;textShadow=0;whiteSpace=wrap;fontColor=default;" vertex="1" parent="u_zgDY_KHdapnY-MHny4-36">
          <mxGeometry x="30" width="120" height="30" as="geometry">
            <mxRectangle width="120" height="30" as="alternateBounds" />
          </mxGeometry>
        </mxCell>
        <mxCell id="u_zgDY_KHdapnY-MHny4-39" value="" style="shape=tableRow;horizontal=0;startSize=0;swimlaneHead=0;swimlaneBody=0;strokeColor=inherit;top=0;left=0;bottom=0;right=0;collapsible=0;dropTarget=0;fillColor=none;points=[[0,0.5],[1,0.5]];portConstraint=eastwest;fontStyle=2;fontFamily=Comic Sans MS;labelBackgroundColor=none;labelBorderColor=none;textShadow=0;whiteSpace=wrap;fontColor=default;" vertex="1" parent="u_zgDY_KHdapnY-MHny4-32">
          <mxGeometry y="90" width="150" height="30" as="geometry" />
        </mxCell>
        <mxCell id="u_zgDY_KHdapnY-MHny4-40" value="" style="shape=partialRectangle;connectable=0;strokeColor=inherit;overflow=hidden;fillColor=none;top=0;left=0;bottom=0;right=0;pointerEvents=1;fontStyle=2;fontFamily=Comic Sans MS;labelBackgroundColor=none;labelBorderColor=none;textShadow=0;whiteSpace=wrap;fontColor=default;" vertex="1" parent="u_zgDY_KHdapnY-MHny4-39">
          <mxGeometry width="30" height="30" as="geometry">
            <mxRectangle width="30" height="30" as="alternateBounds" />
          </mxGeometry>
        </mxCell>
        <mxCell id="u_zgDY_KHdapnY-MHny4-41" value="DateOfBirth" style="shape=partialRectangle;connectable=0;strokeColor=inherit;overflow=hidden;fillColor=none;top=0;left=0;bottom=0;right=0;pointerEvents=1;fontStyle=2;fontFamily=Comic Sans MS;labelBackgroundColor=none;labelBorderColor=none;textShadow=0;whiteSpace=wrap;fontColor=default;" vertex="1" parent="u_zgDY_KHdapnY-MHny4-39">
          <mxGeometry x="30" width="120" height="30" as="geometry">
            <mxRectangle width="120" height="30" as="alternateBounds" />
          </mxGeometry>
        </mxCell>
        <mxCell id="u_zgDY_KHdapnY-MHny4-42" value="" style="shape=tableRow;horizontal=0;startSize=0;swimlaneHead=0;swimlaneBody=0;strokeColor=inherit;top=0;left=0;bottom=0;right=0;collapsible=0;dropTarget=0;fillColor=none;points=[[0,0.5],[1,0.5]];portConstraint=eastwest;fontStyle=2;fontFamily=Comic Sans MS;labelBackgroundColor=none;labelBorderColor=none;textShadow=0;whiteSpace=wrap;fontColor=default;" vertex="1" parent="u_zgDY_KHdapnY-MHny4-32">
          <mxGeometry y="120" width="150" height="30" as="geometry" />
        </mxCell>
        <mxCell id="u_zgDY_KHdapnY-MHny4-43" value="" style="shape=partialRectangle;connectable=0;strokeColor=inherit;overflow=hidden;fillColor=none;top=0;left=0;bottom=0;right=0;pointerEvents=1;fontStyle=2;fontFamily=Comic Sans MS;labelBackgroundColor=none;labelBorderColor=none;textShadow=0;whiteSpace=wrap;fontColor=default;" vertex="1" parent="u_zgDY_KHdapnY-MHny4-42">
          <mxGeometry width="30" height="30" as="geometry">
            <mxRectangle width="30" height="30" as="alternateBounds" />
          </mxGeometry>
        </mxCell>
        <mxCell id="u_zgDY_KHdapnY-MHny4-44" value="ContactNumber" style="shape=partialRectangle;connectable=0;strokeColor=inherit;overflow=hidden;fillColor=none;top=0;left=0;bottom=0;right=0;pointerEvents=1;fontStyle=2;fontFamily=Comic Sans MS;labelBackgroundColor=none;labelBorderColor=none;textShadow=0;whiteSpace=wrap;fontColor=default;" vertex="1" parent="u_zgDY_KHdapnY-MHny4-42">
          <mxGeometry x="30" width="120" height="30" as="geometry">
            <mxRectangle width="120" height="30" as="alternateBounds" />
          </mxGeometry>
        </mxCell>
        <mxCell id="88p8YIW0kUKhWvBcYqw2-1" value="tbl_Doctor" style="shape=table;startSize=30;container=1;collapsible=0;childLayout=tableLayout;fontStyle=3;fontFamily=Comic Sans MS;labelBackgroundColor=none;labelBorderColor=none;textShadow=0;whiteSpace=wrap;fontColor=default;" vertex="1" parent="1">
          <mxGeometry x="590" y="60" width="155" height="150" as="geometry" />
        </mxCell>
        <mxCell id="88p8YIW0kUKhWvBcYqw2-2" value="" style="shape=tableRow;horizontal=0;startSize=0;swimlaneHead=0;swimlaneBody=0;strokeColor=inherit;top=0;left=0;bottom=0;right=0;collapsible=0;dropTarget=0;fillColor=none;points=[[0,0.5],[1,0.5]];portConstraint=eastwest;fontStyle=2;fontFamily=Comic Sans MS;labelBackgroundColor=none;labelBorderColor=none;textShadow=0;whiteSpace=wrap;fontColor=default;" vertex="1" parent="88p8YIW0kUKhWvBcYqw2-1">
          <mxGeometry y="30" width="155" height="30" as="geometry" />
        </mxCell>
        <mxCell id="88p8YIW0kUKhWvBcYqw2-3" value="PK" style="shape=partialRectangle;connectable=0;strokeColor=inherit;overflow=hidden;fillColor=none;top=0;left=0;bottom=0;right=0;pointerEvents=1;fontStyle=3;fontFamily=Comic Sans MS;labelBackgroundColor=none;labelBorderColor=none;textShadow=0;whiteSpace=wrap;fontColor=default;" vertex="1" parent="88p8YIW0kUKhWvBcYqw2-2">
          <mxGeometry width="31" height="30" as="geometry">
            <mxRectangle width="31" height="30" as="alternateBounds" />
          </mxGeometry>
        </mxCell>
        <mxCell id="88p8YIW0kUKhWvBcYqw2-4" value="DoctorID" style="shape=partialRectangle;connectable=0;strokeColor=inherit;overflow=hidden;fillColor=none;top=0;left=0;bottom=0;right=0;pointerEvents=1;fontStyle=3;fontFamily=Comic Sans MS;labelBackgroundColor=none;labelBorderColor=none;textShadow=0;whiteSpace=wrap;fontColor=default;" vertex="1" parent="88p8YIW0kUKhWvBcYqw2-2">
          <mxGeometry x="31" width="124" height="30" as="geometry">
            <mxRectangle width="124" height="30" as="alternateBounds" />
          </mxGeometry>
        </mxCell>
        <mxCell id="88p8YIW0kUKhWvBcYqw2-5" value="" style="shape=tableRow;horizontal=0;startSize=0;swimlaneHead=0;swimlaneBody=0;strokeColor=inherit;top=0;left=0;bottom=0;right=0;collapsible=0;dropTarget=0;fillColor=none;points=[[0,0.5],[1,0.5]];portConstraint=eastwest;fontStyle=2;fontFamily=Comic Sans MS;labelBackgroundColor=none;labelBorderColor=none;textShadow=0;whiteSpace=wrap;fontColor=default;" vertex="1" parent="88p8YIW0kUKhWvBcYqw2-1">
          <mxGeometry y="60" width="155" height="30" as="geometry" />
        </mxCell>
        <mxCell id="88p8YIW0kUKhWvBcYqw2-6" value="" style="shape=partialRectangle;connectable=0;strokeColor=inherit;overflow=hidden;fillColor=none;top=0;left=0;bottom=0;right=0;pointerEvents=1;fontStyle=2;fontFamily=Comic Sans MS;labelBackgroundColor=none;labelBorderColor=none;textShadow=0;whiteSpace=wrap;fontColor=default;" vertex="1" parent="88p8YIW0kUKhWvBcYqw2-5">
          <mxGeometry width="31" height="30" as="geometry">
            <mxRectangle width="31" height="30" as="alternateBounds" />
          </mxGeometry>
        </mxCell>
        <mxCell id="88p8YIW0kUKhWvBcYqw2-7" value="Name" style="shape=partialRectangle;connectable=0;strokeColor=inherit;overflow=hidden;fillColor=none;top=0;left=0;bottom=0;right=0;pointerEvents=1;align=center;fontStyle=2;fontFamily=Comic Sans MS;labelBackgroundColor=none;labelBorderColor=none;textShadow=0;whiteSpace=wrap;fontColor=default;" vertex="1" parent="88p8YIW0kUKhWvBcYqw2-5">
          <mxGeometry x="31" width="124" height="30" as="geometry">
            <mxRectangle width="124" height="30" as="alternateBounds" />
          </mxGeometry>
        </mxCell>
        <mxCell id="88p8YIW0kUKhWvBcYqw2-8" value="" style="shape=tableRow;horizontal=0;startSize=0;swimlaneHead=0;swimlaneBody=0;strokeColor=inherit;top=0;left=0;bottom=0;right=0;collapsible=0;dropTarget=0;fillColor=none;points=[[0,0.5],[1,0.5]];portConstraint=eastwest;fontStyle=2;fontFamily=Comic Sans MS;labelBackgroundColor=none;labelBorderColor=none;textShadow=0;whiteSpace=wrap;fontColor=default;" vertex="1" parent="88p8YIW0kUKhWvBcYqw2-1">
          <mxGeometry y="90" width="155" height="30" as="geometry" />
        </mxCell>
        <mxCell id="88p8YIW0kUKhWvBcYqw2-9" value="" style="shape=partialRectangle;connectable=0;strokeColor=inherit;overflow=hidden;fillColor=none;top=0;left=0;bottom=0;right=0;pointerEvents=1;fontStyle=2;fontFamily=Comic Sans MS;labelBackgroundColor=none;labelBorderColor=none;textShadow=0;whiteSpace=wrap;fontColor=default;" vertex="1" parent="88p8YIW0kUKhWvBcYqw2-8">
          <mxGeometry width="31" height="30" as="geometry">
            <mxRectangle width="31" height="30" as="alternateBounds" />
          </mxGeometry>
        </mxCell>
        <mxCell id="88p8YIW0kUKhWvBcYqw2-10" value="Specialization" style="shape=partialRectangle;connectable=0;strokeColor=inherit;overflow=hidden;fillColor=none;top=0;left=0;bottom=0;right=0;pointerEvents=1;fontStyle=2;fontFamily=Comic Sans MS;labelBackgroundColor=none;labelBorderColor=none;textShadow=0;whiteSpace=wrap;fontColor=default;" vertex="1" parent="88p8YIW0kUKhWvBcYqw2-8">
          <mxGeometry x="31" width="124" height="30" as="geometry">
            <mxRectangle width="124" height="30" as="alternateBounds" />
          </mxGeometry>
        </mxCell>
        <mxCell id="88p8YIW0kUKhWvBcYqw2-11" value="" style="shape=tableRow;horizontal=0;startSize=0;swimlaneHead=0;swimlaneBody=0;strokeColor=inherit;top=0;left=0;bottom=0;right=0;collapsible=0;dropTarget=0;fillColor=none;points=[[0,0.5],[1,0.5]];portConstraint=eastwest;fontStyle=2;fontFamily=Comic Sans MS;labelBackgroundColor=none;labelBorderColor=none;textShadow=0;whiteSpace=wrap;fontColor=default;" vertex="1" parent="88p8YIW0kUKhWvBcYqw2-1">
          <mxGeometry y="120" width="155" height="30" as="geometry" />
        </mxCell>
        <mxCell id="88p8YIW0kUKhWvBcYqw2-12" value="" style="shape=partialRectangle;connectable=0;strokeColor=inherit;overflow=hidden;fillColor=none;top=0;left=0;bottom=0;right=0;pointerEvents=1;fontStyle=2;fontFamily=Comic Sans MS;labelBackgroundColor=none;labelBorderColor=none;textShadow=0;whiteSpace=wrap;fontColor=default;" vertex="1" parent="88p8YIW0kUKhWvBcYqw2-11">
          <mxGeometry width="31" height="30" as="geometry">
            <mxRectangle width="31" height="30" as="alternateBounds" />
          </mxGeometry>
        </mxCell>
        <mxCell id="88p8YIW0kUKhWvBcYqw2-13" value="ContactNumber" style="shape=partialRectangle;connectable=0;strokeColor=inherit;overflow=hidden;fillColor=none;top=0;left=0;bottom=0;right=0;pointerEvents=1;fontStyle=2;fontFamily=Comic Sans MS;labelBackgroundColor=none;labelBorderColor=none;textShadow=0;whiteSpace=wrap;fontColor=default;" vertex="1" parent="88p8YIW0kUKhWvBcYqw2-11">
          <mxGeometry x="31" width="124" height="30" as="geometry">
            <mxRectangle width="124" height="30" as="alternateBounds" />
          </mxGeometry>
        </mxCell>
        <mxCell id="88p8YIW0kUKhWvBcYqw2-14" value="tbl_Appointment" style="shape=table;startSize=30;container=1;collapsible=0;childLayout=tableLayout;fontStyle=3;fontFamily=Comic Sans MS;labelBackgroundColor=none;labelBorderColor=none;textShadow=0;whiteSpace=wrap;fontColor=default;" vertex="1" parent="1">
          <mxGeometry x="350" y="40" width="150" height="150" as="geometry" />
        </mxCell>
        <mxCell id="88p8YIW0kUKhWvBcYqw2-15" value="" style="shape=tableRow;horizontal=0;startSize=0;swimlaneHead=0;swimlaneBody=0;strokeColor=inherit;top=0;left=0;bottom=0;right=0;collapsible=0;dropTarget=0;fillColor=none;points=[[0,0.5],[1,0.5]];portConstraint=eastwest;fontStyle=2;fontFamily=Comic Sans MS;labelBackgroundColor=none;labelBorderColor=none;textShadow=0;whiteSpace=wrap;fontColor=default;" vertex="1" parent="88p8YIW0kUKhWvBcYqw2-14">
          <mxGeometry y="30" width="150" height="21" as="geometry" />
        </mxCell>
        <mxCell id="88p8YIW0kUKhWvBcYqw2-16" value="PK" style="shape=partialRectangle;connectable=0;strokeColor=inherit;overflow=hidden;fillColor=none;top=0;left=0;bottom=0;right=0;pointerEvents=1;fontStyle=3;fontFamily=Comic Sans MS;labelBackgroundColor=none;labelBorderColor=none;textShadow=0;whiteSpace=wrap;fontColor=default;" vertex="1" parent="88p8YIW0kUKhWvBcYqw2-15">
          <mxGeometry width="30" height="21" as="geometry">
            <mxRectangle width="30" height="21" as="alternateBounds" />
          </mxGeometry>
        </mxCell>
        <mxCell id="88p8YIW0kUKhWvBcYqw2-17" value="AppointmentID" style="shape=partialRectangle;connectable=0;strokeColor=inherit;overflow=hidden;fillColor=none;top=0;left=0;bottom=0;right=0;pointerEvents=1;fontStyle=3;fontFamily=Comic Sans MS;labelBackgroundColor=none;labelBorderColor=none;textShadow=0;whiteSpace=wrap;fontColor=default;" vertex="1" parent="88p8YIW0kUKhWvBcYqw2-15">
          <mxGeometry x="30" width="120" height="21" as="geometry">
            <mxRectangle width="120" height="21" as="alternateBounds" />
          </mxGeometry>
        </mxCell>
        <mxCell id="88p8YIW0kUKhWvBcYqw2-18" value="" style="shape=tableRow;horizontal=0;startSize=0;swimlaneHead=0;swimlaneBody=0;strokeColor=inherit;top=0;left=0;bottom=0;right=0;collapsible=0;dropTarget=0;fillColor=none;points=[[0,0.5],[1,0.5]];portConstraint=eastwest;fontStyle=2;fontFamily=Comic Sans MS;labelBackgroundColor=none;labelBorderColor=none;textShadow=0;whiteSpace=wrap;fontColor=default;" vertex="1" parent="88p8YIW0kUKhWvBcYqw2-14">
          <mxGeometry y="51" width="150" height="21" as="geometry" />
        </mxCell>
        <mxCell id="88p8YIW0kUKhWvBcYqw2-19" value="FK" style="shape=partialRectangle;connectable=0;strokeColor=inherit;overflow=hidden;fillColor=none;top=0;left=0;bottom=0;right=0;pointerEvents=1;fontStyle=2;fontFamily=Comic Sans MS;labelBackgroundColor=none;labelBorderColor=none;textShadow=0;whiteSpace=wrap;fontColor=default;" vertex="1" parent="88p8YIW0kUKhWvBcYqw2-18">
          <mxGeometry width="30" height="21" as="geometry">
            <mxRectangle width="30" height="21" as="alternateBounds" />
          </mxGeometry>
        </mxCell>
        <mxCell id="88p8YIW0kUKhWvBcYqw2-20" value="PatientID" style="shape=partialRectangle;connectable=0;strokeColor=inherit;overflow=hidden;fillColor=none;top=0;left=0;bottom=0;right=0;pointerEvents=1;align=center;fontStyle=2;fontFamily=Comic Sans MS;labelBackgroundColor=none;labelBorderColor=none;textShadow=0;whiteSpace=wrap;fontColor=default;" vertex="1" parent="88p8YIW0kUKhWvBcYqw2-18">
          <mxGeometry x="30" width="120" height="21" as="geometry">
            <mxRectangle width="120" height="21" as="alternateBounds" />
          </mxGeometry>
        </mxCell>
        <mxCell id="88p8YIW0kUKhWvBcYqw2-21" value="" style="shape=tableRow;horizontal=0;startSize=0;swimlaneHead=0;swimlaneBody=0;strokeColor=inherit;top=0;left=0;bottom=0;right=0;collapsible=0;dropTarget=0;fillColor=none;points=[[0,0.5],[1,0.5]];portConstraint=eastwest;fontStyle=2;fontFamily=Comic Sans MS;labelBackgroundColor=none;labelBorderColor=none;textShadow=0;whiteSpace=wrap;fontColor=default;" vertex="1" parent="88p8YIW0kUKhWvBcYqw2-14">
          <mxGeometry y="72" width="150" height="36" as="geometry" />
        </mxCell>
        <mxCell id="88p8YIW0kUKhWvBcYqw2-22" value="FK" style="shape=partialRectangle;connectable=0;strokeColor=inherit;overflow=hidden;fillColor=none;top=0;left=0;bottom=0;right=0;pointerEvents=1;fontStyle=2;fontFamily=Comic Sans MS;labelBackgroundColor=none;labelBorderColor=none;textShadow=0;whiteSpace=wrap;fontColor=default;" vertex="1" parent="88p8YIW0kUKhWvBcYqw2-21">
          <mxGeometry width="30" height="36" as="geometry">
            <mxRectangle width="30" height="36" as="alternateBounds" />
          </mxGeometry>
        </mxCell>
        <mxCell id="88p8YIW0kUKhWvBcYqw2-23" value="DoctorID" style="shape=partialRectangle;connectable=0;strokeColor=inherit;overflow=hidden;fillColor=none;top=0;left=0;bottom=0;right=0;pointerEvents=1;fontStyle=2;fontFamily=Comic Sans MS;labelBackgroundColor=none;labelBorderColor=none;textShadow=0;whiteSpace=wrap;fontColor=default;" vertex="1" parent="88p8YIW0kUKhWvBcYqw2-21">
          <mxGeometry x="30" width="120" height="36" as="geometry">
            <mxRectangle width="120" height="36" as="alternateBounds" />
          </mxGeometry>
        </mxCell>
        <mxCell id="88p8YIW0kUKhWvBcYqw2-60" value="tbl_Patient" style="shape=table;startSize=30;container=1;collapsible=0;childLayout=tableLayout;fontStyle=3;fontFamily=Comic Sans MS;labelBackgroundColor=none;labelBorderColor=none;textShadow=0;whiteSpace=wrap;fontColor=default;" vertex="1" parent="88p8YIW0kUKhWvBcYqw2-21">
          <mxGeometry x="150" width="NaN" height="36" as="geometry">
            <mxRectangle width="NaN" height="36" as="alternateBounds" />
          </mxGeometry>
        </mxCell>
        <mxCell id="88p8YIW0kUKhWvBcYqw2-61" value="" style="shape=tableRow;horizontal=0;startSize=0;swimlaneHead=0;swimlaneBody=0;strokeColor=inherit;top=0;left=0;bottom=0;right=0;collapsible=0;dropTarget=0;fillColor=none;points=[[0,0.5],[1,0.5]];portConstraint=eastwest;fontStyle=3;fontFamily=Comic Sans MS;labelBackgroundColor=none;labelBorderColor=none;textShadow=0;whiteSpace=wrap;fontColor=default;" vertex="1" visible="0" parent="88p8YIW0kUKhWvBcYqw2-60">
          <mxGeometry y="30" width="150" height="30" as="geometry" />
        </mxCell>
        <mxCell id="88p8YIW0kUKhWvBcYqw2-62" value="PK" style="shape=partialRectangle;connectable=0;strokeColor=inherit;overflow=hidden;fillColor=none;top=0;left=0;bottom=0;right=0;pointerEvents=1;fontStyle=3;fontFamily=Comic Sans MS;labelBackgroundColor=none;labelBorderColor=none;textShadow=0;whiteSpace=wrap;fontColor=default;" vertex="1" parent="88p8YIW0kUKhWvBcYqw2-61">
          <mxGeometry width="30" height="30" as="geometry">
            <mxRectangle width="30" height="30" as="alternateBounds" />
          </mxGeometry>
        </mxCell>
        <mxCell id="88p8YIW0kUKhWvBcYqw2-63" value="PatientID" style="shape=partialRectangle;connectable=0;strokeColor=inherit;overflow=hidden;fillColor=none;top=0;left=0;bottom=0;right=0;pointerEvents=1;fontStyle=3;fontFamily=Comic Sans MS;labelBackgroundColor=none;labelBorderColor=none;textShadow=0;whiteSpace=wrap;fontColor=default;" vertex="1" parent="88p8YIW0kUKhWvBcYqw2-61">
          <mxGeometry x="30" width="120" height="30" as="geometry">
            <mxRectangle width="120" height="30" as="alternateBounds" />
          </mxGeometry>
        </mxCell>
        <mxCell id="88p8YIW0kUKhWvBcYqw2-64" value="" style="shape=tableRow;horizontal=0;startSize=0;swimlaneHead=0;swimlaneBody=0;strokeColor=inherit;top=0;left=0;bottom=0;right=0;collapsible=0;dropTarget=0;fillColor=none;points=[[0,0.5],[1,0.5]];portConstraint=eastwest;fontStyle=2;fontFamily=Comic Sans MS;labelBackgroundColor=none;labelBorderColor=none;textShadow=0;whiteSpace=wrap;fontColor=default;" vertex="1" visible="0" parent="88p8YIW0kUKhWvBcYqw2-60">
          <mxGeometry y="60" width="150" height="30" as="geometry" />
        </mxCell>
        <mxCell id="88p8YIW0kUKhWvBcYqw2-65" value="" style="shape=partialRectangle;connectable=0;strokeColor=inherit;overflow=hidden;fillColor=none;top=0;left=0;bottom=0;right=0;pointerEvents=1;fontStyle=2;fontFamily=Comic Sans MS;labelBackgroundColor=none;labelBorderColor=none;textShadow=0;whiteSpace=wrap;fontColor=default;" vertex="1" parent="88p8YIW0kUKhWvBcYqw2-64">
          <mxGeometry width="30" height="30" as="geometry">
            <mxRectangle width="30" height="30" as="alternateBounds" />
          </mxGeometry>
        </mxCell>
        <mxCell id="88p8YIW0kUKhWvBcYqw2-66" value="Name" style="shape=partialRectangle;connectable=0;strokeColor=inherit;overflow=hidden;fillColor=none;top=0;left=0;bottom=0;right=0;pointerEvents=1;align=center;fontStyle=2;fontFamily=Comic Sans MS;labelBackgroundColor=none;labelBorderColor=none;textShadow=0;whiteSpace=wrap;fontColor=default;" vertex="1" parent="88p8YIW0kUKhWvBcYqw2-64">
          <mxGeometry x="30" width="120" height="30" as="geometry">
            <mxRectangle width="120" height="30" as="alternateBounds" />
          </mxGeometry>
        </mxCell>
        <mxCell id="88p8YIW0kUKhWvBcYqw2-67" value="" style="shape=tableRow;horizontal=0;startSize=0;swimlaneHead=0;swimlaneBody=0;strokeColor=inherit;top=0;left=0;bottom=0;right=0;collapsible=0;dropTarget=0;fillColor=none;points=[[0,0.5],[1,0.5]];portConstraint=eastwest;fontStyle=2;fontFamily=Comic Sans MS;labelBackgroundColor=none;labelBorderColor=none;textShadow=0;whiteSpace=wrap;fontColor=default;" vertex="1" visible="0" parent="88p8YIW0kUKhWvBcYqw2-60">
          <mxGeometry y="90" width="150" height="30" as="geometry" />
        </mxCell>
        <mxCell id="88p8YIW0kUKhWvBcYqw2-68" value="" style="shape=partialRectangle;connectable=0;strokeColor=inherit;overflow=hidden;fillColor=none;top=0;left=0;bottom=0;right=0;pointerEvents=1;fontStyle=2;fontFamily=Comic Sans MS;labelBackgroundColor=none;labelBorderColor=none;textShadow=0;whiteSpace=wrap;fontColor=default;" vertex="1" parent="88p8YIW0kUKhWvBcYqw2-67">
          <mxGeometry width="30" height="30" as="geometry">
            <mxRectangle width="30" height="30" as="alternateBounds" />
          </mxGeometry>
        </mxCell>
        <mxCell id="88p8YIW0kUKhWvBcYqw2-69" value="DateOfBirth" style="shape=partialRectangle;connectable=0;strokeColor=inherit;overflow=hidden;fillColor=none;top=0;left=0;bottom=0;right=0;pointerEvents=1;fontStyle=2;fontFamily=Comic Sans MS;labelBackgroundColor=none;labelBorderColor=none;textShadow=0;whiteSpace=wrap;fontColor=default;" vertex="1" parent="88p8YIW0kUKhWvBcYqw2-67">
          <mxGeometry x="30" width="120" height="30" as="geometry">
            <mxRectangle width="120" height="30" as="alternateBounds" />
          </mxGeometry>
        </mxCell>
        <mxCell id="88p8YIW0kUKhWvBcYqw2-70" value="" style="shape=tableRow;horizontal=0;startSize=0;swimlaneHead=0;swimlaneBody=0;strokeColor=inherit;top=0;left=0;bottom=0;right=0;collapsible=0;dropTarget=0;fillColor=none;points=[[0,0.5],[1,0.5]];portConstraint=eastwest;fontStyle=2;fontFamily=Comic Sans MS;labelBackgroundColor=none;labelBorderColor=none;textShadow=0;whiteSpace=wrap;fontColor=default;" vertex="1" visible="0" parent="88p8YIW0kUKhWvBcYqw2-60">
          <mxGeometry y="120" width="150" height="30" as="geometry" />
        </mxCell>
        <mxCell id="88p8YIW0kUKhWvBcYqw2-71" value="" style="shape=partialRectangle;connectable=0;strokeColor=inherit;overflow=hidden;fillColor=none;top=0;left=0;bottom=0;right=0;pointerEvents=1;fontStyle=2;fontFamily=Comic Sans MS;labelBackgroundColor=none;labelBorderColor=none;textShadow=0;whiteSpace=wrap;fontColor=default;" vertex="1" parent="88p8YIW0kUKhWvBcYqw2-70">
          <mxGeometry width="30" height="30" as="geometry">
            <mxRectangle width="30" height="30" as="alternateBounds" />
          </mxGeometry>
        </mxCell>
        <mxCell id="88p8YIW0kUKhWvBcYqw2-72" value="ContactNumber" style="shape=partialRectangle;connectable=0;strokeColor=inherit;overflow=hidden;fillColor=none;top=0;left=0;bottom=0;right=0;pointerEvents=1;fontStyle=2;fontFamily=Comic Sans MS;labelBackgroundColor=none;labelBorderColor=none;textShadow=0;whiteSpace=wrap;fontColor=default;" vertex="1" parent="88p8YIW0kUKhWvBcYqw2-70">
          <mxGeometry x="30" width="120" height="30" as="geometry">
            <mxRectangle width="120" height="30" as="alternateBounds" />
          </mxGeometry>
        </mxCell>
        <mxCell id="88p8YIW0kUKhWvBcYqw2-27" value="" style="shape=tableRow;horizontal=0;startSize=0;swimlaneHead=0;swimlaneBody=0;strokeColor=inherit;top=0;left=0;bottom=0;right=0;collapsible=0;dropTarget=0;fillColor=none;points=[[0,0.5],[1,0.5]];portConstraint=eastwest;fontStyle=2;fontFamily=Comic Sans MS;labelBackgroundColor=none;labelBorderColor=none;textShadow=0;whiteSpace=wrap;fontColor=default;" vertex="1" parent="88p8YIW0kUKhWvBcYqw2-14">
          <mxGeometry y="108" width="150" height="21" as="geometry" />
        </mxCell>
        <mxCell id="88p8YIW0kUKhWvBcYqw2-28" value="" style="shape=partialRectangle;connectable=0;strokeColor=inherit;overflow=hidden;fillColor=none;top=0;left=0;bottom=0;right=0;pointerEvents=1;fontStyle=2;fontFamily=Comic Sans MS;labelBackgroundColor=none;labelBorderColor=none;textShadow=0;whiteSpace=wrap;fontColor=default;" vertex="1" parent="88p8YIW0kUKhWvBcYqw2-27">
          <mxGeometry width="30" height="21" as="geometry">
            <mxRectangle width="30" height="21" as="alternateBounds" />
          </mxGeometry>
        </mxCell>
        <mxCell id="88p8YIW0kUKhWvBcYqw2-29" value="ScheduledDate" style="shape=partialRectangle;connectable=0;strokeColor=inherit;overflow=hidden;fillColor=none;top=0;left=0;bottom=0;right=0;pointerEvents=1;fontStyle=2;fontFamily=Comic Sans MS;labelBackgroundColor=none;labelBorderColor=none;textShadow=0;whiteSpace=wrap;fontColor=default;" vertex="1" parent="88p8YIW0kUKhWvBcYqw2-27">
          <mxGeometry x="30" width="120" height="21" as="geometry">
            <mxRectangle width="120" height="21" as="alternateBounds" />
          </mxGeometry>
        </mxCell>
        <mxCell id="88p8YIW0kUKhWvBcYqw2-24" value="" style="shape=tableRow;horizontal=0;startSize=0;swimlaneHead=0;swimlaneBody=0;strokeColor=inherit;top=0;left=0;bottom=0;right=0;collapsible=0;dropTarget=0;fillColor=none;points=[[0,0.5],[1,0.5]];portConstraint=eastwest;fontStyle=2;fontFamily=Comic Sans MS;labelBackgroundColor=none;labelBorderColor=none;textShadow=0;whiteSpace=wrap;fontColor=default;" vertex="1" parent="88p8YIW0kUKhWvBcYqw2-14">
          <mxGeometry y="129" width="150" height="21" as="geometry" />
        </mxCell>
        <mxCell id="88p8YIW0kUKhWvBcYqw2-25" value="" style="shape=partialRectangle;connectable=0;strokeColor=inherit;overflow=hidden;fillColor=none;top=0;left=0;bottom=0;right=0;pointerEvents=1;fontStyle=2;fontFamily=Comic Sans MS;labelBackgroundColor=none;labelBorderColor=none;textShadow=0;whiteSpace=wrap;fontColor=default;" vertex="1" parent="88p8YIW0kUKhWvBcYqw2-24">
          <mxGeometry width="30" height="21" as="geometry">
            <mxRectangle width="30" height="21" as="alternateBounds" />
          </mxGeometry>
        </mxCell>
        <mxCell id="88p8YIW0kUKhWvBcYqw2-26" value="ScheduledTime" style="shape=partialRectangle;connectable=0;strokeColor=inherit;overflow=hidden;fillColor=none;top=0;left=0;bottom=0;right=0;pointerEvents=1;fontStyle=2;fontFamily=Comic Sans MS;labelBackgroundColor=none;labelBorderColor=none;textShadow=0;whiteSpace=wrap;fontColor=default;" vertex="1" parent="88p8YIW0kUKhWvBcYqw2-24">
          <mxGeometry x="30" width="120" height="21" as="geometry">
            <mxRectangle width="120" height="21" as="alternateBounds" />
          </mxGeometry>
        </mxCell>
        <mxCell id="88p8YIW0kUKhWvBcYqw2-30" value="tbl_Room" style="shape=table;startSize=30;container=1;collapsible=0;childLayout=tableLayout;fontStyle=3;fontFamily=Comic Sans MS;labelBackgroundColor=none;labelBorderColor=none;textShadow=0;whiteSpace=wrap;fontColor=default;" vertex="1" parent="1">
          <mxGeometry x="150" y="330" width="150" height="150" as="geometry" />
        </mxCell>
        <mxCell id="88p8YIW0kUKhWvBcYqw2-31" value="" style="shape=tableRow;horizontal=0;startSize=0;swimlaneHead=0;swimlaneBody=0;strokeColor=inherit;top=0;left=0;bottom=0;right=0;collapsible=0;dropTarget=0;fillColor=none;points=[[0,0.5],[1,0.5]];portConstraint=eastwest;fontStyle=2;fontFamily=Comic Sans MS;labelBackgroundColor=none;labelBorderColor=none;textShadow=0;whiteSpace=wrap;fontColor=default;" vertex="1" parent="88p8YIW0kUKhWvBcYqw2-30">
          <mxGeometry y="30" width="150" height="30" as="geometry" />
        </mxCell>
        <mxCell id="88p8YIW0kUKhWvBcYqw2-32" value="PK" style="shape=partialRectangle;connectable=0;strokeColor=inherit;overflow=hidden;fillColor=none;top=0;left=0;bottom=0;right=0;pointerEvents=1;fontStyle=3;fontFamily=Comic Sans MS;labelBackgroundColor=none;labelBorderColor=none;textShadow=0;whiteSpace=wrap;fontColor=default;" vertex="1" parent="88p8YIW0kUKhWvBcYqw2-31">
          <mxGeometry width="30" height="30" as="geometry">
            <mxRectangle width="30" height="30" as="alternateBounds" />
          </mxGeometry>
        </mxCell>
        <mxCell id="88p8YIW0kUKhWvBcYqw2-33" value="RoomNumber" style="shape=partialRectangle;connectable=0;strokeColor=inherit;overflow=hidden;fillColor=none;top=0;left=0;bottom=0;right=0;pointerEvents=1;fontStyle=3;fontFamily=Comic Sans MS;labelBackgroundColor=none;labelBorderColor=none;textShadow=0;whiteSpace=wrap;fontColor=default;" vertex="1" parent="88p8YIW0kUKhWvBcYqw2-31">
          <mxGeometry x="30" width="120" height="30" as="geometry">
            <mxRectangle width="120" height="30" as="alternateBounds" />
          </mxGeometry>
        </mxCell>
        <mxCell id="88p8YIW0kUKhWvBcYqw2-34" value="" style="shape=tableRow;horizontal=0;startSize=0;swimlaneHead=0;swimlaneBody=0;strokeColor=inherit;top=0;left=0;bottom=0;right=0;collapsible=0;dropTarget=0;fillColor=none;points=[[0,0.5],[1,0.5]];portConstraint=eastwest;fontStyle=2;fontFamily=Comic Sans MS;labelBackgroundColor=none;labelBorderColor=none;textShadow=0;whiteSpace=wrap;fontColor=default;" vertex="1" parent="88p8YIW0kUKhWvBcYqw2-30">
          <mxGeometry y="60" width="150" height="30" as="geometry" />
        </mxCell>
        <mxCell id="88p8YIW0kUKhWvBcYqw2-35" value="" style="shape=partialRectangle;connectable=0;strokeColor=inherit;overflow=hidden;fillColor=none;top=0;left=0;bottom=0;right=0;pointerEvents=1;fontStyle=2;fontFamily=Comic Sans MS;labelBackgroundColor=none;labelBorderColor=none;textShadow=0;whiteSpace=wrap;fontColor=default;" vertex="1" parent="88p8YIW0kUKhWvBcYqw2-34">
          <mxGeometry width="30" height="30" as="geometry">
            <mxRectangle width="30" height="30" as="alternateBounds" />
          </mxGeometry>
        </mxCell>
        <mxCell id="88p8YIW0kUKhWvBcYqw2-36" value="RoomType" style="shape=partialRectangle;connectable=0;strokeColor=inherit;overflow=hidden;fillColor=none;top=0;left=0;bottom=0;right=0;pointerEvents=1;align=center;fontStyle=2;fontFamily=Comic Sans MS;labelBackgroundColor=none;labelBorderColor=none;textShadow=0;whiteSpace=wrap;fontColor=default;" vertex="1" parent="88p8YIW0kUKhWvBcYqw2-34">
          <mxGeometry x="30" width="120" height="30" as="geometry">
            <mxRectangle width="120" height="30" as="alternateBounds" />
          </mxGeometry>
        </mxCell>
        <mxCell id="88p8YIW0kUKhWvBcYqw2-37" value="" style="shape=tableRow;horizontal=0;startSize=0;swimlaneHead=0;swimlaneBody=0;strokeColor=inherit;top=0;left=0;bottom=0;right=0;collapsible=0;dropTarget=0;fillColor=none;points=[[0,0.5],[1,0.5]];portConstraint=eastwest;fontStyle=2;fontFamily=Comic Sans MS;labelBackgroundColor=none;labelBorderColor=none;textShadow=0;whiteSpace=wrap;fontColor=default;" vertex="1" parent="88p8YIW0kUKhWvBcYqw2-30">
          <mxGeometry y="90" width="150" height="30" as="geometry" />
        </mxCell>
        <mxCell id="88p8YIW0kUKhWvBcYqw2-38" value="" style="shape=partialRectangle;connectable=0;strokeColor=inherit;overflow=hidden;fillColor=none;top=0;left=0;bottom=0;right=0;pointerEvents=1;fontStyle=2;fontFamily=Comic Sans MS;labelBackgroundColor=none;labelBorderColor=none;textShadow=0;whiteSpace=wrap;fontColor=default;" vertex="1" parent="88p8YIW0kUKhWvBcYqw2-37">
          <mxGeometry width="30" height="30" as="geometry">
            <mxRectangle width="30" height="30" as="alternateBounds" />
          </mxGeometry>
        </mxCell>
        <mxCell id="88p8YIW0kUKhWvBcYqw2-39" value="AvailabilityStatus" style="shape=partialRectangle;connectable=0;strokeColor=inherit;overflow=hidden;fillColor=none;top=0;left=0;bottom=0;right=0;pointerEvents=1;fontStyle=2;fontFamily=Comic Sans MS;labelBackgroundColor=none;labelBorderColor=none;textShadow=0;whiteSpace=wrap;fontColor=default;" vertex="1" parent="88p8YIW0kUKhWvBcYqw2-37">
          <mxGeometry x="30" width="120" height="30" as="geometry">
            <mxRectangle width="120" height="30" as="alternateBounds" />
          </mxGeometry>
        </mxCell>
        <mxCell id="88p8YIW0kUKhWvBcYqw2-40" value="" style="shape=tableRow;horizontal=0;startSize=0;swimlaneHead=0;swimlaneBody=0;strokeColor=inherit;top=0;left=0;bottom=0;right=0;collapsible=0;dropTarget=0;fillColor=none;points=[[0,0.5],[1,0.5]];portConstraint=eastwest;fontStyle=2;fontFamily=Comic Sans MS;labelBackgroundColor=none;labelBorderColor=none;textShadow=0;whiteSpace=wrap;fontColor=default;" vertex="1" parent="88p8YIW0kUKhWvBcYqw2-30">
          <mxGeometry y="120" width="150" height="30" as="geometry" />
        </mxCell>
        <mxCell id="88p8YIW0kUKhWvBcYqw2-41" value="FK" style="shape=partialRectangle;connectable=0;strokeColor=inherit;overflow=hidden;fillColor=none;top=0;left=0;bottom=0;right=0;pointerEvents=1;fontStyle=2;fontFamily=Comic Sans MS;labelBackgroundColor=none;labelBorderColor=none;textShadow=0;whiteSpace=wrap;fontColor=default;" vertex="1" parent="88p8YIW0kUKhWvBcYqw2-40">
          <mxGeometry width="30" height="30" as="geometry">
            <mxRectangle width="30" height="30" as="alternateBounds" />
          </mxGeometry>
        </mxCell>
        <mxCell id="88p8YIW0kUKhWvBcYqw2-42" value="PatientID" style="shape=partialRectangle;connectable=0;strokeColor=inherit;overflow=hidden;fillColor=none;top=0;left=0;bottom=0;right=0;pointerEvents=1;fontStyle=2;fontFamily=Comic Sans MS;labelBackgroundColor=none;labelBorderColor=none;textShadow=0;whiteSpace=wrap;fontColor=default;" vertex="1" parent="88p8YIW0kUKhWvBcYqw2-40">
          <mxGeometry x="30" width="120" height="30" as="geometry">
            <mxRectangle width="120" height="30" as="alternateBounds" />
          </mxGeometry>
        </mxCell>
        <mxCell id="88p8YIW0kUKhWvBcYqw2-43" value="tbl_Bill" style="shape=table;startSize=30;container=1;collapsible=0;childLayout=tableLayout;fontStyle=3;fontFamily=Comic Sans MS;labelBackgroundColor=none;labelBorderColor=none;textShadow=0;whiteSpace=wrap;fontColor=default;" vertex="1" parent="1">
          <mxGeometry x="440" y="360" width="150" height="150" as="geometry" />
        </mxCell>
        <mxCell id="88p8YIW0kUKhWvBcYqw2-44" value="" style="shape=tableRow;horizontal=0;startSize=0;swimlaneHead=0;swimlaneBody=0;strokeColor=inherit;top=0;left=0;bottom=0;right=0;collapsible=0;dropTarget=0;fillColor=none;points=[[0,0.5],[1,0.5]];portConstraint=eastwest;fontStyle=2;fontFamily=Comic Sans MS;labelBackgroundColor=none;labelBorderColor=none;textShadow=0;whiteSpace=wrap;fontColor=default;" vertex="1" parent="88p8YIW0kUKhWvBcYqw2-43">
          <mxGeometry y="30" width="150" height="30" as="geometry" />
        </mxCell>
        <mxCell id="88p8YIW0kUKhWvBcYqw2-45" value="PK" style="shape=partialRectangle;connectable=0;strokeColor=inherit;overflow=hidden;fillColor=none;top=0;left=0;bottom=0;right=0;pointerEvents=1;fontStyle=3;fontFamily=Comic Sans MS;labelBackgroundColor=none;labelBorderColor=none;textShadow=0;whiteSpace=wrap;fontColor=default;" vertex="1" parent="88p8YIW0kUKhWvBcYqw2-44">
          <mxGeometry width="30" height="30" as="geometry">
            <mxRectangle width="30" height="30" as="alternateBounds" />
          </mxGeometry>
        </mxCell>
        <mxCell id="88p8YIW0kUKhWvBcYqw2-46" value="BillID" style="shape=partialRectangle;connectable=0;strokeColor=inherit;overflow=hidden;fillColor=none;top=0;left=0;bottom=0;right=0;pointerEvents=1;fontStyle=3;fontFamily=Comic Sans MS;labelBackgroundColor=none;labelBorderColor=none;textShadow=0;whiteSpace=wrap;fontColor=default;" vertex="1" parent="88p8YIW0kUKhWvBcYqw2-44">
          <mxGeometry x="30" width="120" height="30" as="geometry">
            <mxRectangle width="120" height="30" as="alternateBounds" />
          </mxGeometry>
        </mxCell>
        <mxCell id="88p8YIW0kUKhWvBcYqw2-47" value="" style="shape=tableRow;horizontal=0;startSize=0;swimlaneHead=0;swimlaneBody=0;strokeColor=inherit;top=0;left=0;bottom=0;right=0;collapsible=0;dropTarget=0;fillColor=none;points=[[0,0.5],[1,0.5]];portConstraint=eastwest;fontStyle=2;fontFamily=Comic Sans MS;labelBackgroundColor=none;labelBorderColor=none;textShadow=0;whiteSpace=wrap;fontColor=default;" vertex="1" parent="88p8YIW0kUKhWvBcYqw2-43">
          <mxGeometry y="60" width="150" height="30" as="geometry" />
        </mxCell>
        <mxCell id="88p8YIW0kUKhWvBcYqw2-48" value="FK`&#x9;&#x9;&#x9;&#x9;&#x9;&#x9;&#x9;&#x9;&#x9;&#x9;&#x9;&#x9;&#x9;&#x9;&#x9;&#x9;&#x9;" style="shape=partialRectangle;connectable=0;strokeColor=inherit;overflow=hidden;fillColor=none;top=0;left=0;bottom=0;right=0;pointerEvents=1;fontStyle=2;fontFamily=Comic Sans MS;labelBackgroundColor=none;labelBorderColor=none;textShadow=0;whiteSpace=wrap;fontColor=default;" vertex="1" parent="88p8YIW0kUKhWvBcYqw2-47">
          <mxGeometry width="30" height="30" as="geometry">
            <mxRectangle width="30" height="30" as="alternateBounds" />
          </mxGeometry>
        </mxCell>
        <mxCell id="88p8YIW0kUKhWvBcYqw2-49" value="PatientID" style="shape=partialRectangle;connectable=0;strokeColor=inherit;overflow=hidden;fillColor=none;top=0;left=0;bottom=0;right=0;pointerEvents=1;align=center;fontStyle=2;fontFamily=Comic Sans MS;labelBackgroundColor=none;labelBorderColor=none;textShadow=0;whiteSpace=wrap;fontColor=default;" vertex="1" parent="88p8YIW0kUKhWvBcYqw2-47">
          <mxGeometry x="30" width="120" height="30" as="geometry">
            <mxRectangle width="120" height="30" as="alternateBounds" />
          </mxGeometry>
        </mxCell>
        <mxCell id="88p8YIW0kUKhWvBcYqw2-50" value="" style="shape=tableRow;horizontal=0;startSize=0;swimlaneHead=0;swimlaneBody=0;strokeColor=inherit;top=0;left=0;bottom=0;right=0;collapsible=0;dropTarget=0;fillColor=none;points=[[0,0.5],[1,0.5]];portConstraint=eastwest;fontStyle=2;fontFamily=Comic Sans MS;labelBackgroundColor=none;labelBorderColor=none;textShadow=0;whiteSpace=wrap;fontColor=default;" vertex="1" parent="88p8YIW0kUKhWvBcYqw2-43">
          <mxGeometry y="90" width="150" height="30" as="geometry" />
        </mxCell>
        <mxCell id="88p8YIW0kUKhWvBcYqw2-51" value="" style="shape=partialRectangle;connectable=0;strokeColor=inherit;overflow=hidden;fillColor=none;top=0;left=0;bottom=0;right=0;pointerEvents=1;fontStyle=2;fontFamily=Comic Sans MS;labelBackgroundColor=none;labelBorderColor=none;textShadow=0;whiteSpace=wrap;fontColor=default;" vertex="1" parent="88p8YIW0kUKhWvBcYqw2-50">
          <mxGeometry width="30" height="30" as="geometry">
            <mxRectangle width="30" height="30" as="alternateBounds" />
          </mxGeometry>
        </mxCell>
        <mxCell id="88p8YIW0kUKhWvBcYqw2-52" value="TotalAmount" style="shape=partialRectangle;connectable=0;strokeColor=inherit;overflow=hidden;fillColor=none;top=0;left=0;bottom=0;right=0;pointerEvents=1;fontStyle=2;fontFamily=Comic Sans MS;labelBackgroundColor=none;labelBorderColor=none;textShadow=0;whiteSpace=wrap;fontColor=default;" vertex="1" parent="88p8YIW0kUKhWvBcYqw2-50">
          <mxGeometry x="30" width="120" height="30" as="geometry">
            <mxRectangle width="120" height="30" as="alternateBounds" />
          </mxGeometry>
        </mxCell>
        <mxCell id="88p8YIW0kUKhWvBcYqw2-53" value="" style="shape=tableRow;horizontal=0;startSize=0;swimlaneHead=0;swimlaneBody=0;strokeColor=inherit;top=0;left=0;bottom=0;right=0;collapsible=0;dropTarget=0;fillColor=none;points=[[0,0.5],[1,0.5]];portConstraint=eastwest;fontStyle=2;fontFamily=Comic Sans MS;labelBackgroundColor=none;labelBorderColor=none;textShadow=0;whiteSpace=wrap;fontColor=default;" vertex="1" parent="88p8YIW0kUKhWvBcYqw2-43">
          <mxGeometry y="120" width="150" height="30" as="geometry" />
        </mxCell>
        <mxCell id="88p8YIW0kUKhWvBcYqw2-54" value="" style="shape=partialRectangle;connectable=0;strokeColor=inherit;overflow=hidden;fillColor=none;top=0;left=0;bottom=0;right=0;pointerEvents=1;fontStyle=2;fontFamily=Comic Sans MS;labelBackgroundColor=none;labelBorderColor=none;textShadow=0;whiteSpace=wrap;fontColor=default;" vertex="1" parent="88p8YIW0kUKhWvBcYqw2-53">
          <mxGeometry width="30" height="30" as="geometry">
            <mxRectangle width="30" height="30" as="alternateBounds" />
          </mxGeometry>
        </mxCell>
        <mxCell id="88p8YIW0kUKhWvBcYqw2-55" value="PaymentStatus" style="shape=partialRectangle;connectable=0;strokeColor=inherit;overflow=hidden;fillColor=none;top=0;left=0;bottom=0;right=0;pointerEvents=1;fontStyle=2;fontFamily=Comic Sans MS;labelBackgroundColor=none;labelBorderColor=none;textShadow=0;whiteSpace=wrap;fontColor=default;" vertex="1" parent="88p8YIW0kUKhWvBcYqw2-53">
          <mxGeometry x="30" width="120" height="30" as="geometry">
            <mxRectangle width="120" height="30" as="alternateBounds" />
          </mxGeometry>
        </mxCell>
        <mxCell id="88p8YIW0kUKhWvBcYqw2-74" value="" style="edgeStyle=orthogonalEdgeStyle;fontSize=12;html=1;endArrow=ERoneToMany;startArrow=ERmandOne;rounded=0;entryX=0;entryY=0.5;entryDx=0;entryDy=0;curved=1;" edge="1" parent="1" target="88p8YIW0kUKhWvBcYqw2-18">
          <mxGeometry width="100" height="100" relative="1" as="geometry">
            <mxPoint x="250" y="120" as="sourcePoint" />
            <mxPoint x="480" y="220" as="targetPoint" />
            <Array as="points">
              <mxPoint x="300" y="120" />
              <mxPoint x="300" y="101" />
            </Array>
          </mxGeometry>
        </mxCell>
        <mxCell id="88p8YIW0kUKhWvBcYqw2-75" value="" style="edgeStyle=orthogonalEdgeStyle;fontSize=12;html=1;endArrow=ERoneToMany;startArrow=ERmandOne;rounded=0;entryX=1;entryY=0.5;entryDx=0;entryDy=0;exitX=0;exitY=0.5;exitDx=0;exitDy=0;curved=1;" edge="1" parent="1" source="88p8YIW0kUKhWvBcYqw2-2" target="88p8YIW0kUKhWvBcYqw2-21">
          <mxGeometry width="100" height="100" relative="1" as="geometry">
            <mxPoint x="540" y="150" as="sourcePoint" />
            <mxPoint x="360" y="112" as="targetPoint" />
          </mxGeometry>
        </mxCell>
        <mxCell id="88p8YIW0kUKhWvBcYqw2-77" value="" style="edgeStyle=orthogonalEdgeStyle;fontSize=12;html=1;endArrow=ERmandOne;startArrow=ERmandOne;rounded=0;entryX=0;entryY=0.5;entryDx=0;entryDy=0;curved=1;exitX=0;exitY=0.5;exitDx=0;exitDy=0;" edge="1" parent="1" source="88p8YIW0kUKhWvBcYqw2-40" target="u_zgDY_KHdapnY-MHny4-33">
          <mxGeometry width="100" height="100" relative="1" as="geometry">
            <mxPoint x="90" y="460" as="sourcePoint" />
            <mxPoint x="40" y="215" as="targetPoint" />
            <Array as="points">
              <mxPoint x="50" y="465" />
              <mxPoint x="50" y="125" />
            </Array>
          </mxGeometry>
        </mxCell>
        <mxCell id="88p8YIW0kUKhWvBcYqw2-79" value="" style="edgeStyle=entityRelationEdgeStyle;fontSize=12;html=1;endArrow=ERoneToMany;startArrow=ERmandOne;rounded=0;exitX=0.992;exitY=0.686;exitDx=0;exitDy=0;exitPerimeter=0;entryX=0;entryY=0.5;entryDx=0;entryDy=0;" edge="1" parent="1" target="88p8YIW0kUKhWvBcYqw2-47">
          <mxGeometry width="100" height="100" relative="1" as="geometry">
            <mxPoint x="250.00000000000006" y="130.57999999999998" as="sourcePoint" />
            <mxPoint x="411.2" y="250" as="targetPoint" />
          </mxGeometry>
        </mxCell>
        <mxCell id="88p8YIW0kUKhWvBcYqw2-81" value="1:M" style="text;whiteSpace=wrap;" vertex="1" parent="1">
          <mxGeometry x="290" y="80" width="30" height="20" as="geometry" />
        </mxCell>
        <mxCell id="88p8YIW0kUKhWvBcYqw2-83" value="1:M" style="text;whiteSpace=wrap;" vertex="1" parent="1">
          <mxGeometry x="340" y="260" width="30" height="20" as="geometry" />
        </mxCell>
        <mxCell id="88p8YIW0kUKhWvBcYqw2-85" value="1:M" style="text;whiteSpace=wrap;" vertex="1" parent="1">
          <mxGeometry x="530" y="90" width="30" height="20" as="geometry" />
        </mxCell>
        <mxCell id="88p8YIW0kUKhWvBcYqw2-87" value="1:1" style="text;whiteSpace=wrap;" vertex="1" parent="1">
          <mxGeometry x="60" y="290" width="50" height="40" as="geometry" />
        </mxCell>
      </root>
    </mxGraphModel>
  </diagram>
</mxfile>
